<svg width="461" height="79" viewBox="0 0 461 79" fill="none" xmlns="http://www.w3.org/2000/svg">
<path d="M436.835 78.5403C432.538 78.5403 429.055 75.0571 429.055 70.7604V24.0815C429.055 19.7848 425.572 16.3016 421.275 16.3016V16.3016C416.978 16.3016 413.495 12.8185 413.495 8.5218V8.5218C413.495 4.22512 416.978 0.741974 421.275 0.741974H452.394C456.691 0.741974 460.174 4.22512 460.174 8.5218V8.5218C460.174 12.8185 456.691 16.3016 452.394 16.3016V16.3016C448.098 16.3016 444.614 19.7848 444.614 24.0815V70.7604C444.614 75.0571 441.131 78.5403 436.835 78.5403V78.5403Z" fill="black"/>
<path d="M326.05 78.5403C321.753 78.5403 318.27 75.0571 318.27 70.7604V8.52179C318.27 4.22511 321.753 0.741974 326.05 0.741974V0.741974C330.347 0.741974 333.83 4.22512 333.83 8.52179V8.52179C333.83 12.8185 337.313 16.3016 341.609 16.3016V16.3016C345.906 16.3016 349.389 19.7848 349.389 24.0815V31.8613H356.949C361.367 31.8613 364.949 35.443 364.949 39.8613V47.4209H372.509C376.927 47.4209 380.509 43.8392 380.509 39.4209V8.52182C380.509 4.22513 383.992 0.741974 388.288 0.741974V0.741974C392.585 0.741974 396.068 4.22513 396.068 8.52182V70.7604C396.068 75.0571 392.585 78.5403 388.288 78.5403V78.5403C383.992 78.5403 380.509 75.0571 380.509 70.7604V70.7604C380.509 66.4637 377.025 62.9806 372.729 62.9806V62.9806C368.432 62.9806 364.949 59.4975 364.949 55.2008V47.4209H357.389C352.971 47.4209 349.389 43.8392 349.389 39.4209V31.8613H341.83C337.411 31.8613 333.83 35.443 333.83 39.8613V70.7604C333.83 75.0571 330.347 78.5403 326.05 78.5403V78.5403Z" fill="black"/>
<path d="M262.165 78.5403C257.746 78.5403 254.165 74.9585 254.165 70.5403V8.74197C254.165 4.32369 257.746 0.741974 262.165 0.741974H293.064C297.36 0.741974 300.844 4.22512 300.844 8.5218V8.5218C300.844 12.8185 297.36 16.3016 293.064 16.3016H277.504C273.207 16.3016 269.724 19.7848 269.724 24.0815V24.0815C269.724 28.3781 273.207 31.8613 277.504 31.8613H293.064C297.36 31.8613 300.844 35.3444 300.844 39.6411V39.6411C300.844 43.9378 297.36 47.4209 293.064 47.4209H277.504C273.207 47.4209 269.724 50.9041 269.724 55.2008V55.2008C269.724 59.4974 273.207 62.9806 277.504 62.9806H293.064C297.36 62.9806 300.844 66.4637 300.844 70.7604V70.7604C300.844 75.0571 297.36 78.5403 293.064 78.5403H262.165Z" fill="black"/>
<path d="M182.279 78.5403C177.982 78.5403 174.499 75.0571 174.499 70.7604V8.5218C174.499 4.22512 177.982 0.741974 182.279 0.741974V0.741974C186.576 0.741974 190.059 4.22512 190.059 8.5218V23.8613C190.059 28.2796 193.64 31.8613 198.059 31.8613H213.178C217.596 31.8613 221.178 28.2796 221.178 23.8613V8.5218C221.178 4.22512 224.661 0.741974 228.958 0.741974V0.741974C233.254 0.741974 236.738 4.22512 236.738 8.5218V70.7604C236.738 75.0571 233.254 78.5403 228.958 78.5403V78.5403C224.661 78.5403 221.178 75.0571 221.178 70.7604V55.4209C221.178 51.0027 217.596 47.4209 213.178 47.4209H198.059C193.64 47.4209 190.059 51.0027 190.059 55.4209V70.7604C190.059 75.0571 186.576 78.5403 182.279 78.5403V78.5403Z" fill="black"/>
<path d="M110.393 16.3016V8.74197C110.393 4.32369 113.975 0.741974 118.393 0.741974H149.292C153.589 0.741974 157.072 4.22512 157.072 8.5218V8.5218C157.072 12.8185 153.589 16.3016 149.292 16.3016H110.393ZM141.512 62.9806V47.4209H118.393C113.975 47.4209 110.393 43.8392 110.393 39.4209V31.8613H102.613C98.3166 31.8613 94.8335 28.3781 94.8335 24.0815V24.0815C94.8335 19.7848 98.3166 16.3016 102.613 16.3016H110.393V31.8613H133.512C137.931 31.8613 141.512 35.443 141.512 39.8613V47.4209H149.292C153.589 47.4209 157.072 50.9041 157.072 55.2008V55.2008C157.072 59.4974 153.589 62.9806 149.292 62.9806H141.512ZM102.613 78.5403C98.3166 78.5403 94.8335 75.0571 94.8335 70.7604V70.7604C94.8335 66.4637 98.3166 62.9806 102.613 62.9806H141.512V70.5403C141.512 74.9585 137.931 78.5403 133.512 78.5403H102.613Z" fill="black"/>
<path d="M62.248 16.323H69.6147C74.033 16.323 77.6147 19.9047 77.6147 24.323V31.8996H62.248V16.323Z" fill="black"/>
<path d="M46.8813 8.42985C46.8813 4.18645 50.3213 0.74649 54.5647 0.74649V0.74649C58.8081 0.74649 62.248 4.18644 62.248 8.42984V16.323L46.8813 16.323V8.42985Z" fill="black"/>
<path d="M31.5146 16.323L46.8813 16.323V24.2162C46.8813 28.4596 43.4414 31.8996 39.198 31.8996V31.8996C34.9546 31.8996 31.5146 28.4596 31.5146 24.2162V16.323Z" fill="black"/>
<path d="M16.1479 8.42985C16.1479 4.18645 19.5879 0.74649 23.8313 0.74649V0.74649C28.0747 0.74649 31.5146 4.18644 31.5146 8.42984V16.323L16.1479 16.323V8.42985Z" fill="black"/>
<path d="M0.78125 24.323C0.78125 19.9048 4.36298 16.323 8.78126 16.323L16.1479 16.323V31.8996H0.78125V24.323Z" fill="black"/>
<path d="M0.78125 31.8996H16.1479V47.4761H8.78125C4.36297 47.4761 0.78125 43.8944 0.78125 39.4761V31.8996Z" fill="black"/>
<path d="M16.1479 47.4761L23.7264 47.4761C28.0277 47.4761 31.5146 51.0159 31.5146 55.3172V55.3172C31.5146 59.5606 28.0747 63.0527 23.8313 63.0527V63.0527C19.5879 63.0527 16.1479 59.6127 16.1479 55.3693V47.4761Z" fill="black"/>
<path d="M31.5146 70.8048C31.5146 66.5035 35.0016 62.9637 39.3029 62.9637H46.8813V70.8569C46.8813 75.1003 43.4414 78.5403 39.198 78.5403V78.5403C34.9546 78.5403 31.5146 75.0482 31.5146 70.8048V70.8048Z" fill="black"/>
<path d="M46.8813 55.0705C46.8813 50.8271 50.3213 47.3871 54.5647 47.3871V47.3871C58.8081 47.3871 62.248 50.8792 62.248 55.1226V55.1226C62.248 59.4239 58.7611 62.9637 54.4598 62.9637L46.8813 62.9637V55.0705Z" fill="black"/>
<path d="M62.248 31.8996H77.6147V39.7928C77.6147 44.0362 74.1748 47.4761 69.9314 47.4761V47.4761C65.688 47.4761 62.248 44.0362 62.248 39.7928V31.8996Z" fill="black"/>
</svg>
